<?xml version="1.0"?>
<svg xmlns="http://www.w3.org/2000/svg" xmlns:xlink="http://www.w3.org/1999/xlink" version="1.1" id="Capa_1" x="0px" y="0px" viewBox="0 0 59.248 59.248" style="enable-background:new 0 0 59.248 59.248;" xml:space="preserve" width="512px" height="512px"><g><g>
	<path d="M51.427,39.624l-5.596,8.04l-3.949-3.241c-0.427-0.351-1.056-0.287-1.407,0.138c-0.351,0.427-0.289,1.058,0.139,1.407   l4.786,3.929c0.18,0.148,0.404,0.228,0.634,0.228c0.045,0,0.091-0.003,0.137-0.01c0.276-0.038,0.524-0.19,0.684-0.419l6.214-8.929   c0.315-0.453,0.204-1.076-0.25-1.392C52.365,39.056,51.743,39.17,51.427,39.624z" data-original="#000000" class="active-path" data-old_color="#000000" fill="#039BE5"/>
	<path d="M46.248,32.124c-7.168,0-13,5.832-13,13s5.832,13,13,13s13-5.832,13-13S53.417,32.124,46.248,32.124z M46.248,56.124   c-6.065,0-11-4.935-11-11s4.935-11,11-11s11,4.935,11,11S52.313,56.124,46.248,56.124z" data-original="#000000" class="active-path" data-old_color="#000000" fill="#039BE5"/>
	<polygon points="0,32.337 25.147,57.538 31.289,51.412 6.115,26.238  " data-original="#000000" class="active-path" data-old_color="#000000" fill="#039BE5"/>
	<path d="M29.415,45.124c0-8.822,7.178-16,16-16c2.402,0,4.673,0.547,6.719,1.499l4.281-4.27V12.213L45.3,1.124H31.295L7.531,24.826   l21.973,21.973C29.446,46.248,29.415,45.69,29.415,45.124z M42.43,10.124c2.17,0,3.935,1.766,3.935,3.936s-1.765,3.935-3.935,3.935   s-3.935-1.765-3.935-3.935S40.26,10.124,42.43,10.124z" data-original="#000000" class="active-path" data-old_color="#000000" fill="#039BE5"/>
</g></g> </svg>
