<?xml version="1.0"?>
<svg xmlns="http://www.w3.org/2000/svg" xmlns:xlink="http://www.w3.org/1999/xlink" version="1.1" id="Capa_1" x="0px" y="0px" viewBox="0 0 512.005 512.005" style="enable-background:new 0 0 512.005 512.005;" xml:space="preserve" width="512px" height="512px"><g><g>
	<path d="M458.817,53.23C424.487,18.91,378.857,0,330.307,0c-48.54,0-94.18,18.91-128.5,53.23c-0.18,0.18-0.359,0.361-0.538,0.542   L4.437,250.602c-5.858,5.858-5.858,15.355,0,21.213c2.929,2.929,6.768,4.394,10.606,4.394s7.678-1.464,10.606-4.394   l126.712-126.712c-5.09,24.918-4.929,50.705,0.484,75.568l-52.403,52.403c-5.858,5.858-5.858,15.355,0,21.213   c2.929,2.929,6.768,4.394,10.606,4.394s7.678-1.464,10.606-4.394l41.416-41.416c6.983,16.474,16.503,32.118,28.562,46.331   L5.022,485.814c-5.858,5.858-5.858,15.355,0,21.213c2.929,2.929,6.768,4.394,10.606,4.394s7.678-1.464,10.606-4.394L212.842,320.42   c13.73,11.671,28.932,21.117,45.161,28.155l-7.554,7.555c-5.858,5.858-5.858,15.355,0,21.213c2.929,2.929,6.768,4.393,10.606,4.393   s7.678-1.464,10.606-4.394l18.333-18.333c13.078,2.947,26.579,4.461,40.312,4.461c12.404,0,24.617-1.234,36.5-3.644   L240.234,486.398c-5.858,5.858-5.858,15.355,0,21.213c2.929,2.929,6.768,4.394,10.606,4.394s7.678-1.464,10.606-4.394   l197.368-197.368c0.052-0.052,0.103-0.104,0.154-0.157C529.676,239.223,529.625,124.039,458.817,53.23z M237.307,274.74   c-51.28-51.28-51.28-134.72,0-186c51.28-51.29,134.73-51.29,186.01,0c51.28,51.28,51.28,134.72,0,186   c-24.85,24.84-57.87,38.52-93.01,38.52C295.176,313.26,262.147,299.58,237.307,274.74z" data-original="#000000" class="active-path" data-old_color="#000000" fill="#66BB6A"/>
	<path d="M402.097,109.95c-19.79-19.79-45.79-29.69-71.79-29.69c-25.99,0-51.99,9.9-71.79,29.69c-39.58,39.58-39.58,103.99,0,143.58   c19.18,19.17,44.68,29.73,71.79,29.73c27.12,0,52.62-10.56,71.79-29.73C441.687,213.94,441.687,149.53,402.097,109.95z    M245.497,181.73c0-8.28,6.71-15,15-15h16.73c8.28,0,15,6.72,15,15c0,8.29-6.72,15-15,15h-16.73   C252.206,196.73,245.497,190.02,245.497,181.73z M303.357,229.92l-11.83,11.83c-2.93,2.93-6.77,4.4-10.61,4.4   c-3.84,0-7.68-1.47-10.61-4.4c-5.85-5.86-5.85-15.35,0-21.21l11.84-11.83c5.86-5.86,15.35-5.86,21.21,0   C309.217,214.56,309.217,224.06,303.357,229.92z M303.406,154.9c-2.93,2.93-6.77,4.39-10.61,4.39s-7.68-1.46-10.6-4.39   l-11.84-11.84c-5.86-5.86-5.86-15.35,0-21.21c5.86-5.86,15.36-5.86,21.22,0l11.83,11.83   C309.267,139.54,309.267,149.04,303.406,154.9z M345.307,251.62c0,8.28-6.71,15-15,15c-8.28,0-15-6.72-15-15v-16.73   c0-8.29,6.72-15,15-15c8.29,0,15,6.71,15,15V251.62z M345.307,128.72c0,8.28-6.71,15-15,15c-8.28,0-15-6.72-15-15v-16.74   c0-8.28,6.72-15,15-15c8.29,0,15,6.72,15,15V128.72z M357.217,133.64l11.83-11.84c5.86-5.86,15.36-5.86,21.22,0   c5.85,5.86,5.85,15.36,0,21.21l-11.84,11.84c-2.93,2.93-6.76,4.39-10.6,4.39s-7.68-1.46-10.61-4.39   C351.357,148.99,351.357,139.49,357.217,133.64z M390.307,241.8c-2.93,2.93-6.76,4.39-10.6,4.39c-3.84,0-7.68-1.46-10.61-4.39   l-11.83-11.83c-5.86-5.86-5.86-15.36,0-21.22c5.86-5.85,15.35-5.85,21.21,0l11.83,11.84   C396.167,226.45,396.167,235.94,390.307,241.8z M400.127,196.73h-16.73c-8.29,0-15-6.71-15-15c0-8.28,6.71-15,15-15h16.73   c8.29,0,15,6.72,15,15C415.127,190.02,408.417,196.73,400.127,196.73z" data-original="#000000" class="active-path" data-old_color="#000000" fill="#66BB6A"/>
	<path d="M69.002,346.942l21.296-21.296c5.858-5.858,5.858-15.355,0-21.213c-5.857-5.857-15.355-5.858-21.213,0l-21.296,21.296   c-5.858,5.858-5.858,15.355,0,21.213c2.929,2.929,6.768,4.393,10.606,4.393S66.073,349.871,69.002,346.942z" data-original="#000000" class="active-path" data-old_color="#000000" fill="#66BB6A"/>
	<path d="M241.109,386.681c-5.857-5.858-15.355-5.858-21.213,0l-78.49,78.49c-5.858,5.858-5.858,15.355,0,21.213   c2.929,2.929,6.768,4.394,10.606,4.394s7.678-1.464,10.606-4.394l78.49-78.49C246.967,402.036,246.967,392.539,241.109,386.681z" data-original="#000000" class="active-path" data-old_color="#000000" fill="#66BB6A"/>
</g></g> </svg>
